<mxfile host="app.diagrams.net" modified="2022-05-23T05:14:00.711Z" agent="5.0 (Windows NT 10.0; Win64; x64) AppleWebKit/537.36 (KHTML, like Gecko) Chrome/101.0.4951.54 Safari/537.36 Edg/101.0.1210.39" etag="YhW7us-Ksn1CxgbmLZId" version="18.0.3" type="github">
  <diagram id="DOYgF-Zy3J4TfOhHUx3y" name="Page-1">
    <mxGraphModel dx="1497" dy="2045" grid="1" gridSize="10" guides="1" tooltips="1" connect="1" arrows="1" fold="1" page="1" pageScale="1" pageWidth="827" pageHeight="1169" math="0" shadow="0">
      <root>
        <mxCell id="0" />
        <mxCell id="1" parent="0" />
        <mxCell id="U86lI-2MnxNxxLe1aYbE-3" value="" style="edgeStyle=orthogonalEdgeStyle;rounded=0;orthogonalLoop=1;jettySize=auto;html=1;fontFamily=Lucida Console;fontSize=16;" edge="1" parent="1" source="U86lI-2MnxNxxLe1aYbE-1" target="U86lI-2MnxNxxLe1aYbE-2">
          <mxGeometry relative="1" as="geometry" />
        </mxCell>
        <mxCell id="U86lI-2MnxNxxLe1aYbE-1" value="VPS" style="rounded=0;whiteSpace=wrap;html=1;fontFamily=Lucida Console;fontSize=16;" vertex="1" parent="1">
          <mxGeometry x="70" y="300" width="120" height="60" as="geometry" />
        </mxCell>
        <mxCell id="U86lI-2MnxNxxLe1aYbE-5" value="" style="edgeStyle=orthogonalEdgeStyle;rounded=0;orthogonalLoop=1;jettySize=auto;html=1;fontFamily=Lucida Console;fontSize=16;" edge="1" parent="1" source="U86lI-2MnxNxxLe1aYbE-2" target="U86lI-2MnxNxxLe1aYbE-4">
          <mxGeometry relative="1" as="geometry" />
        </mxCell>
        <mxCell id="U86lI-2MnxNxxLe1aYbE-2" value="SPS" style="whiteSpace=wrap;html=1;fontSize=16;fontFamily=Lucida Console;rounded=0;" vertex="1" parent="1">
          <mxGeometry x="270" y="300" width="120" height="60" as="geometry" />
        </mxCell>
        <mxCell id="U86lI-2MnxNxxLe1aYbE-7" value="" style="edgeStyle=orthogonalEdgeStyle;rounded=0;orthogonalLoop=1;jettySize=auto;html=1;fontFamily=Lucida Console;fontSize=16;" edge="1" parent="1" source="U86lI-2MnxNxxLe1aYbE-4" target="U86lI-2MnxNxxLe1aYbE-6">
          <mxGeometry relative="1" as="geometry" />
        </mxCell>
        <mxCell id="U86lI-2MnxNxxLe1aYbE-4" value="PPS" style="whiteSpace=wrap;html=1;fontSize=16;fontFamily=Lucida Console;rounded=0;" vertex="1" parent="1">
          <mxGeometry x="470" y="300" width="120" height="60" as="geometry" />
        </mxCell>
        <mxCell id="U86lI-2MnxNxxLe1aYbE-9" value="" style="edgeStyle=orthogonalEdgeStyle;rounded=0;orthogonalLoop=1;jettySize=auto;html=1;fontFamily=Lucida Console;fontSize=16;" edge="1" parent="1" source="U86lI-2MnxNxxLe1aYbE-6" target="U86lI-2MnxNxxLe1aYbE-8">
          <mxGeometry relative="1" as="geometry" />
        </mxCell>
        <mxCell id="U86lI-2MnxNxxLe1aYbE-6" value="SEI" style="whiteSpace=wrap;html=1;fontSize=16;fontFamily=Lucida Console;rounded=0;" vertex="1" parent="1">
          <mxGeometry x="670" y="300" width="120" height="60" as="geometry" />
        </mxCell>
        <mxCell id="U86lI-2MnxNxxLe1aYbE-12" value="" style="edgeStyle=orthogonalEdgeStyle;rounded=0;orthogonalLoop=1;jettySize=auto;html=1;fontFamily=Lucida Console;fontSize=16;" edge="1" parent="1" source="U86lI-2MnxNxxLe1aYbE-8" target="U86lI-2MnxNxxLe1aYbE-11">
          <mxGeometry relative="1" as="geometry" />
        </mxCell>
        <mxCell id="U86lI-2MnxNxxLe1aYbE-8" value="IDR_W_RADL&lt;br&gt;EOC_0" style="whiteSpace=wrap;html=1;fontSize=16;fontFamily=Lucida Console;rounded=0;" vertex="1" parent="1">
          <mxGeometry x="870" y="300" width="120" height="60" as="geometry" />
        </mxCell>
        <mxCell id="U86lI-2MnxNxxLe1aYbE-10" value="GOP：16&lt;br&gt;Intra Period：32" style="text;html=1;resizable=0;autosize=1;align=center;verticalAlign=middle;points=[];fillColor=none;strokeColor=none;rounded=0;fontFamily=Lucida Console;fontSize=16;" vertex="1" parent="1">
          <mxGeometry x="80" y="140" width="170" height="40" as="geometry" />
        </mxCell>
        <mxCell id="U86lI-2MnxNxxLe1aYbE-11" value="TRAIL_R&lt;br&gt;EOC_1" style="whiteSpace=wrap;html=1;fontSize=16;fontFamily=Lucida Console;rounded=0;" vertex="1" parent="1">
          <mxGeometry x="2250" y="300" width="120" height="60" as="geometry" />
        </mxCell>
        <mxCell id="U86lI-2MnxNxxLe1aYbE-13" value="TSA_N&lt;br&gt;EOC_2" style="rounded=0;whiteSpace=wrap;html=1;fontFamily=Lucida Console;fontSize=16;" vertex="1" parent="1">
          <mxGeometry x="1580" y="194" width="120" height="60" as="geometry" />
        </mxCell>
        <mxCell id="U86lI-2MnxNxxLe1aYbE-14" value="" style="endArrow=classic;html=1;rounded=0;fontFamily=Lucida Console;fontSize=16;exitX=0.5;exitY=0;exitDx=0;exitDy=0;entryX=0.5;entryY=1;entryDx=0;entryDy=0;" edge="1" parent="1" source="U86lI-2MnxNxxLe1aYbE-8" target="U86lI-2MnxNxxLe1aYbE-13">
          <mxGeometry width="50" height="50" relative="1" as="geometry">
            <mxPoint x="1670" y="440" as="sourcePoint" />
            <mxPoint x="1720" y="390" as="targetPoint" />
          </mxGeometry>
        </mxCell>
        <mxCell id="U86lI-2MnxNxxLe1aYbE-17" value="" style="endArrow=classic;html=1;rounded=0;fontFamily=Lucida Console;fontSize=16;entryX=0.5;entryY=1;entryDx=0;entryDy=0;" edge="1" parent="1" target="U86lI-2MnxNxxLe1aYbE-13">
          <mxGeometry width="50" height="50" relative="1" as="geometry">
            <mxPoint x="2310" y="300" as="sourcePoint" />
            <mxPoint x="1450" y="640" as="targetPoint" />
          </mxGeometry>
        </mxCell>
        <mxCell id="U86lI-2MnxNxxLe1aYbE-18" value="TSA_N&lt;br&gt;EOC_3" style="rounded=0;whiteSpace=wrap;html=1;fontFamily=Lucida Console;fontSize=16;" vertex="1" parent="1">
          <mxGeometry x="1241" y="94" width="120" height="60" as="geometry" />
        </mxCell>
        <mxCell id="U86lI-2MnxNxxLe1aYbE-19" value="TSA_N&lt;br&gt;EOC_4" style="rounded=0;whiteSpace=wrap;html=1;fontFamily=Lucida Console;fontSize=16;" vertex="1" parent="1">
          <mxGeometry x="1070" y="-6" width="120" height="60" as="geometry" />
        </mxCell>
        <mxCell id="U86lI-2MnxNxxLe1aYbE-20" value="TSA_N&lt;br&gt;EOC_5" style="rounded=0;whiteSpace=wrap;html=1;fontFamily=Lucida Console;fontSize=16;" vertex="1" parent="1">
          <mxGeometry x="980" y="-126" width="120" height="60" as="geometry" />
        </mxCell>
        <mxCell id="U86lI-2MnxNxxLe1aYbE-21" value="TSA_N&lt;br&gt;EOC_6" style="rounded=0;whiteSpace=wrap;html=1;fontFamily=Lucida Console;fontSize=16;" vertex="1" parent="1">
          <mxGeometry x="1150" y="-126" width="120" height="60" as="geometry" />
        </mxCell>
        <mxCell id="U86lI-2MnxNxxLe1aYbE-22" value="TSA_N&lt;br&gt;EOC_7" style="rounded=0;whiteSpace=wrap;html=1;fontFamily=Lucida Console;fontSize=16;" vertex="1" parent="1">
          <mxGeometry x="1410" y="-6" width="120" height="60" as="geometry" />
        </mxCell>
        <mxCell id="U86lI-2MnxNxxLe1aYbE-23" value="TSA_N&lt;br&gt;EOC_8" style="rounded=0;whiteSpace=wrap;html=1;fontFamily=Lucida Console;fontSize=16;" vertex="1" parent="1">
          <mxGeometry x="1320" y="-126" width="120" height="60" as="geometry" />
        </mxCell>
        <mxCell id="U86lI-2MnxNxxLe1aYbE-24" value="TSA_N&lt;br&gt;EOC_9" style="rounded=0;whiteSpace=wrap;html=1;fontFamily=Lucida Console;fontSize=16;" vertex="1" parent="1">
          <mxGeometry x="1490" y="-126" width="120" height="60" as="geometry" />
        </mxCell>
        <mxCell id="U86lI-2MnxNxxLe1aYbE-25" value="TSA_N&lt;br&gt;EOC_10" style="rounded=0;whiteSpace=wrap;html=1;fontFamily=Lucida Console;fontSize=16;" vertex="1" parent="1">
          <mxGeometry x="1915" y="94" width="120" height="60" as="geometry" />
        </mxCell>
        <mxCell id="U86lI-2MnxNxxLe1aYbE-26" value="TSA_N&lt;br&gt;EOC_11" style="rounded=0;whiteSpace=wrap;html=1;fontFamily=Lucida Console;fontSize=16;" vertex="1" parent="1">
          <mxGeometry x="1744" y="-6" width="120" height="60" as="geometry" />
        </mxCell>
        <mxCell id="U86lI-2MnxNxxLe1aYbE-27" value="TSA_N&lt;br&gt;EOC_12" style="rounded=0;whiteSpace=wrap;html=1;fontFamily=Lucida Console;fontSize=16;" vertex="1" parent="1">
          <mxGeometry x="1654" y="-126" width="120" height="60" as="geometry" />
        </mxCell>
        <mxCell id="U86lI-2MnxNxxLe1aYbE-28" value="TSA_N&lt;br&gt;EOC_13" style="rounded=0;whiteSpace=wrap;html=1;fontFamily=Lucida Console;fontSize=16;" vertex="1" parent="1">
          <mxGeometry x="1824" y="-126" width="120" height="60" as="geometry" />
        </mxCell>
        <mxCell id="U86lI-2MnxNxxLe1aYbE-29" value="TSA_N&lt;br&gt;EOC_14" style="rounded=0;whiteSpace=wrap;html=1;fontFamily=Lucida Console;fontSize=16;" vertex="1" parent="1">
          <mxGeometry x="2084" y="-6" width="120" height="60" as="geometry" />
        </mxCell>
        <mxCell id="U86lI-2MnxNxxLe1aYbE-30" value="TSA_N&lt;br&gt;EOC_15" style="rounded=0;whiteSpace=wrap;html=1;fontFamily=Lucida Console;fontSize=16;" vertex="1" parent="1">
          <mxGeometry x="1994" y="-126" width="120" height="60" as="geometry" />
        </mxCell>
        <mxCell id="U86lI-2MnxNxxLe1aYbE-31" value="TSA_N&lt;br&gt;EOC_16" style="rounded=0;whiteSpace=wrap;html=1;fontFamily=Lucida Console;fontSize=16;" vertex="1" parent="1">
          <mxGeometry x="2164" y="-126" width="120" height="60" as="geometry" />
        </mxCell>
        <mxCell id="U86lI-2MnxNxxLe1aYbE-32" value="" style="edgeStyle=orthogonalEdgeStyle;rounded=0;orthogonalLoop=1;jettySize=auto;html=1;fontFamily=Lucida Console;fontSize=16;" edge="1" parent="1" target="U86lI-2MnxNxxLe1aYbE-33">
          <mxGeometry relative="1" as="geometry">
            <mxPoint x="2371" y="330" as="sourcePoint" />
          </mxGeometry>
        </mxCell>
        <mxCell id="U86lI-2MnxNxxLe1aYbE-33" value="CRA&lt;br&gt;EOC_17" style="whiteSpace=wrap;html=1;fontSize=16;fontFamily=Lucida Console;rounded=0;" vertex="1" parent="1">
          <mxGeometry x="3631" y="300" width="120" height="60" as="geometry" />
        </mxCell>
        <mxCell id="U86lI-2MnxNxxLe1aYbE-34" value="RASL_N&lt;br&gt;EOC_18" style="rounded=0;whiteSpace=wrap;html=1;fontFamily=Lucida Console;fontSize=16;" vertex="1" parent="1">
          <mxGeometry x="2961" y="194" width="120" height="60" as="geometry" />
        </mxCell>
        <mxCell id="U86lI-2MnxNxxLe1aYbE-35" value="" style="endArrow=classic;html=1;rounded=0;fontFamily=Lucida Console;fontSize=16;exitX=1;exitY=0.5;exitDx=0;exitDy=0;entryX=0.5;entryY=1;entryDx=0;entryDy=0;" edge="1" parent="1" target="U86lI-2MnxNxxLe1aYbE-34">
          <mxGeometry width="50" height="50" relative="1" as="geometry">
            <mxPoint x="2371" y="330" as="sourcePoint" />
            <mxPoint x="3101" y="390" as="targetPoint" />
          </mxGeometry>
        </mxCell>
        <mxCell id="U86lI-2MnxNxxLe1aYbE-37" value="RASL_N&lt;br&gt;EOC_19" style="rounded=0;whiteSpace=wrap;html=1;fontFamily=Lucida Console;fontSize=16;" vertex="1" parent="1">
          <mxGeometry x="2622" y="94" width="120" height="60" as="geometry" />
        </mxCell>
        <mxCell id="U86lI-2MnxNxxLe1aYbE-38" value="RASL_N&lt;br&gt;EOC_20" style="rounded=0;whiteSpace=wrap;html=1;fontFamily=Lucida Console;fontSize=16;" vertex="1" parent="1">
          <mxGeometry x="2451" y="-6" width="120" height="60" as="geometry" />
        </mxCell>
        <mxCell id="U86lI-2MnxNxxLe1aYbE-39" value="RASL_N&lt;br&gt;EOC_21" style="rounded=0;whiteSpace=wrap;html=1;fontFamily=Lucida Console;fontSize=16;" vertex="1" parent="1">
          <mxGeometry x="2361" y="-126" width="120" height="60" as="geometry" />
        </mxCell>
        <mxCell id="U86lI-2MnxNxxLe1aYbE-40" value="RASL_N&lt;br&gt;EOC_22" style="rounded=0;whiteSpace=wrap;html=1;fontFamily=Lucida Console;fontSize=16;" vertex="1" parent="1">
          <mxGeometry x="2531" y="-126" width="120" height="60" as="geometry" />
        </mxCell>
        <mxCell id="U86lI-2MnxNxxLe1aYbE-41" value="RASL_N&lt;br&gt;EOC_23" style="rounded=0;whiteSpace=wrap;html=1;fontFamily=Lucida Console;fontSize=16;" vertex="1" parent="1">
          <mxGeometry x="2791" y="-6" width="120" height="60" as="geometry" />
        </mxCell>
        <mxCell id="U86lI-2MnxNxxLe1aYbE-42" value="RASL_N&lt;br&gt;EOC_24" style="rounded=0;whiteSpace=wrap;html=1;fontFamily=Lucida Console;fontSize=16;" vertex="1" parent="1">
          <mxGeometry x="2701" y="-126" width="120" height="60" as="geometry" />
        </mxCell>
        <mxCell id="U86lI-2MnxNxxLe1aYbE-43" value="RASL_N&lt;br&gt;EOC_25" style="rounded=0;whiteSpace=wrap;html=1;fontFamily=Lucida Console;fontSize=16;" vertex="1" parent="1">
          <mxGeometry x="2871" y="-126" width="120" height="60" as="geometry" />
        </mxCell>
        <mxCell id="U86lI-2MnxNxxLe1aYbE-44" value="RASL_N&lt;br&gt;EOC_26" style="rounded=0;whiteSpace=wrap;html=1;fontFamily=Lucida Console;fontSize=16;" vertex="1" parent="1">
          <mxGeometry x="3296" y="94" width="120" height="60" as="geometry" />
        </mxCell>
        <mxCell id="U86lI-2MnxNxxLe1aYbE-45" value="RASL_N&lt;br&gt;EOC_27" style="rounded=0;whiteSpace=wrap;html=1;fontFamily=Lucida Console;fontSize=16;" vertex="1" parent="1">
          <mxGeometry x="3125" y="-6" width="120" height="60" as="geometry" />
        </mxCell>
        <mxCell id="U86lI-2MnxNxxLe1aYbE-46" value="RASL_N&lt;br&gt;EOC_28" style="rounded=0;whiteSpace=wrap;html=1;fontFamily=Lucida Console;fontSize=16;" vertex="1" parent="1">
          <mxGeometry x="3035" y="-126" width="120" height="60" as="geometry" />
        </mxCell>
        <mxCell id="U86lI-2MnxNxxLe1aYbE-47" value="RASL_N&lt;br&gt;EOC_29" style="rounded=0;whiteSpace=wrap;html=1;fontFamily=Lucida Console;fontSize=16;" vertex="1" parent="1">
          <mxGeometry x="3205" y="-126" width="120" height="60" as="geometry" />
        </mxCell>
        <mxCell id="U86lI-2MnxNxxLe1aYbE-48" value="RASL_N&lt;br&gt;EOC_30" style="rounded=0;whiteSpace=wrap;html=1;fontFamily=Lucida Console;fontSize=16;" vertex="1" parent="1">
          <mxGeometry x="3465" y="-6" width="120" height="60" as="geometry" />
        </mxCell>
        <mxCell id="U86lI-2MnxNxxLe1aYbE-49" value="RASL_N&lt;br&gt;EOC_31" style="rounded=0;whiteSpace=wrap;html=1;fontFamily=Lucida Console;fontSize=16;" vertex="1" parent="1">
          <mxGeometry x="3375" y="-126" width="120" height="60" as="geometry" />
        </mxCell>
        <mxCell id="U86lI-2MnxNxxLe1aYbE-50" value="RASL_N&lt;br&gt;EOC_32" style="rounded=0;whiteSpace=wrap;html=1;fontFamily=Lucida Console;fontSize=16;" vertex="1" parent="1">
          <mxGeometry x="3545" y="-126" width="120" height="60" as="geometry" />
        </mxCell>
        <mxCell id="U86lI-2MnxNxxLe1aYbE-51" value="VPS" style="rounded=0;whiteSpace=wrap;html=1;fontFamily=Lucida Console;fontSize=16;dashed=1;" vertex="1" parent="1">
          <mxGeometry x="3210" y="300" width="120" height="60" as="geometry" />
        </mxCell>
        <mxCell id="U86lI-2MnxNxxLe1aYbE-53" value="SPS" style="rounded=0;whiteSpace=wrap;html=1;fontFamily=Lucida Console;fontSize=16;dashed=1;" vertex="1" parent="1">
          <mxGeometry x="3349" y="300" width="120" height="60" as="geometry" />
        </mxCell>
        <mxCell id="U86lI-2MnxNxxLe1aYbE-54" value="PPS" style="rounded=0;whiteSpace=wrap;html=1;fontFamily=Lucida Console;fontSize=16;dashed=1;" vertex="1" parent="1">
          <mxGeometry x="3489" y="300" width="120" height="60" as="geometry" />
        </mxCell>
        <mxCell id="U86lI-2MnxNxxLe1aYbE-55" value="" style="endArrow=none;html=1;rounded=0;fontFamily=Lucida Console;fontSize=16;" edge="1" parent="1">
          <mxGeometry width="50" height="50" relative="1" as="geometry">
            <mxPoint x="650" y="260" as="sourcePoint" />
            <mxPoint x="800" y="400" as="targetPoint" />
          </mxGeometry>
        </mxCell>
        <mxCell id="U86lI-2MnxNxxLe1aYbE-56" value="&lt;span style=&quot;color: rgb(0, 0, 0); font-family: &amp;quot;Lucida Console&amp;quot;; font-size: 16px; font-style: normal; font-variant-ligatures: normal; font-variant-caps: normal; font-weight: 400; letter-spacing: normal; orphans: 2; text-align: center; text-indent: 0px; text-transform: none; widows: 2; word-spacing: 0px; -webkit-text-stroke-width: 0px; background-color: rgb(248, 249, 250); text-decoration-thickness: initial; text-decoration-style: initial; text-decoration-color: initial; float: none; display: inline !important;&quot;&gt;HM raw binary&lt;/span&gt;" style="text;whiteSpace=wrap;html=1;fontSize=16;fontFamily=Lucida Console;" vertex="1" parent="1">
          <mxGeometry x="90" width="150" height="30" as="geometry" />
        </mxCell>
        <mxCell id="U86lI-2MnxNxxLe1aYbE-57" value="" style="endArrow=classic;html=1;rounded=0;fontFamily=Lucida Console;fontSize=16;exitX=0.5;exitY=0;exitDx=0;exitDy=0;entryX=0.5;entryY=1;entryDx=0;entryDy=0;" edge="1" parent="1" source="U86lI-2MnxNxxLe1aYbE-8" target="U86lI-2MnxNxxLe1aYbE-18">
          <mxGeometry width="50" height="50" relative="1" as="geometry">
            <mxPoint x="1019.9999999999995" y="499.99999999999955" as="sourcePoint" />
            <mxPoint x="1240" y="150" as="targetPoint" />
          </mxGeometry>
        </mxCell>
        <mxCell id="U86lI-2MnxNxxLe1aYbE-58" value="" style="endArrow=classic;html=1;rounded=0;fontFamily=Lucida Console;fontSize=16;entryX=0.5;entryY=1;entryDx=0;entryDy=0;exitX=0.5;exitY=0;exitDx=0;exitDy=0;" edge="1" parent="1" source="U86lI-2MnxNxxLe1aYbE-13" target="U86lI-2MnxNxxLe1aYbE-18">
          <mxGeometry width="50" height="50" relative="1" as="geometry">
            <mxPoint x="1410" y="544" as="sourcePoint" />
            <mxPoint x="1460" y="494" as="targetPoint" />
          </mxGeometry>
        </mxCell>
        <mxCell id="U86lI-2MnxNxxLe1aYbE-59" value="" style="endArrow=classic;html=1;rounded=0;fontFamily=Lucida Console;fontSize=16;exitX=0.5;exitY=0;exitDx=0;exitDy=0;entryX=0.5;entryY=1;entryDx=0;entryDy=0;" edge="1" parent="1" source="U86lI-2MnxNxxLe1aYbE-8" target="U86lI-2MnxNxxLe1aYbE-19">
          <mxGeometry width="50" height="50" relative="1" as="geometry">
            <mxPoint x="840" y="190" as="sourcePoint" />
            <mxPoint x="890" y="140" as="targetPoint" />
          </mxGeometry>
        </mxCell>
        <mxCell id="U86lI-2MnxNxxLe1aYbE-60" value="" style="endArrow=classic;html=1;rounded=0;fontFamily=Lucida Console;fontSize=16;exitX=0.5;exitY=0;exitDx=0;exitDy=0;entryX=0.5;entryY=1;entryDx=0;entryDy=0;" edge="1" parent="1" source="U86lI-2MnxNxxLe1aYbE-18" target="U86lI-2MnxNxxLe1aYbE-19">
          <mxGeometry width="50" height="50" relative="1" as="geometry">
            <mxPoint x="1009.9999999999995" y="323.99999999999955" as="sourcePoint" />
            <mxPoint x="1599.9999999999995" y="244" as="targetPoint" />
          </mxGeometry>
        </mxCell>
        <mxCell id="U86lI-2MnxNxxLe1aYbE-61" value="" style="endArrow=classic;html=1;rounded=0;fontFamily=Lucida Console;fontSize=16;exitX=0.5;exitY=0;exitDx=0;exitDy=0;entryX=0.5;entryY=1;entryDx=0;entryDy=0;" edge="1" parent="1" source="U86lI-2MnxNxxLe1aYbE-18" target="U86lI-2MnxNxxLe1aYbE-22">
          <mxGeometry width="50" height="50" relative="1" as="geometry">
            <mxPoint x="1350" y="234" as="sourcePoint" />
            <mxPoint x="1400" y="184" as="targetPoint" />
          </mxGeometry>
        </mxCell>
        <mxCell id="U86lI-2MnxNxxLe1aYbE-62" value="" style="endArrow=classic;html=1;rounded=0;fontFamily=Lucida Console;fontSize=16;entryX=0.5;entryY=1;entryDx=0;entryDy=0;exitX=0.5;exitY=0;exitDx=0;exitDy=0;" edge="1" parent="1" source="U86lI-2MnxNxxLe1aYbE-8" target="U86lI-2MnxNxxLe1aYbE-20">
          <mxGeometry width="50" height="50" relative="1" as="geometry">
            <mxPoint x="990" y="330" as="sourcePoint" />
            <mxPoint x="1609.9999999999995" y="280" as="targetPoint" />
          </mxGeometry>
        </mxCell>
        <mxCell id="U86lI-2MnxNxxLe1aYbE-63" value="" style="endArrow=classic;html=1;rounded=0;fontFamily=Lucida Console;fontSize=16;exitX=0.5;exitY=0;exitDx=0;exitDy=0;entryX=0.5;entryY=1;entryDx=0;entryDy=0;" edge="1" parent="1" source="U86lI-2MnxNxxLe1aYbE-19" target="U86lI-2MnxNxxLe1aYbE-20">
          <mxGeometry width="50" height="50" relative="1" as="geometry">
            <mxPoint x="770" y="154" as="sourcePoint" />
            <mxPoint x="820" y="104" as="targetPoint" />
          </mxGeometry>
        </mxCell>
        <mxCell id="U86lI-2MnxNxxLe1aYbE-64" value="" style="endArrow=classic;html=1;rounded=0;fontFamily=Lucida Console;fontSize=16;exitX=0.5;exitY=0;exitDx=0;exitDy=0;entryX=0.5;entryY=1;entryDx=0;entryDy=0;" edge="1" parent="1" source="U86lI-2MnxNxxLe1aYbE-19" target="U86lI-2MnxNxxLe1aYbE-21">
          <mxGeometry width="50" height="50" relative="1" as="geometry">
            <mxPoint x="779.9999999999995" y="164" as="sourcePoint" />
            <mxPoint x="829.9999999999995" y="114" as="targetPoint" />
          </mxGeometry>
        </mxCell>
        <mxCell id="U86lI-2MnxNxxLe1aYbE-65" value="" style="endArrow=classic;html=1;rounded=0;fontFamily=Lucida Console;fontSize=16;exitX=0.5;exitY=0;exitDx=0;exitDy=0;entryX=0.5;entryY=1;entryDx=0;entryDy=0;" edge="1" parent="1" source="U86lI-2MnxNxxLe1aYbE-18" target="U86lI-2MnxNxxLe1aYbE-21">
          <mxGeometry width="50" height="50" relative="1" as="geometry">
            <mxPoint x="789.9999999999995" y="174" as="sourcePoint" />
            <mxPoint x="839.9999999999995" y="124" as="targetPoint" />
          </mxGeometry>
        </mxCell>
        <mxCell id="U86lI-2MnxNxxLe1aYbE-66" value="" style="endArrow=classic;html=1;rounded=0;fontFamily=Lucida Console;fontSize=16;exitX=0.5;exitY=0;exitDx=0;exitDy=0;entryX=0.5;entryY=1;entryDx=0;entryDy=0;" edge="1" parent="1" source="U86lI-2MnxNxxLe1aYbE-18" target="U86lI-2MnxNxxLe1aYbE-23">
          <mxGeometry width="50" height="50" relative="1" as="geometry">
            <mxPoint x="799.9999999999995" y="184" as="sourcePoint" />
            <mxPoint x="849.9999999999995" y="134" as="targetPoint" />
          </mxGeometry>
        </mxCell>
        <mxCell id="U86lI-2MnxNxxLe1aYbE-67" value="" style="endArrow=classic;html=1;rounded=0;fontFamily=Lucida Console;fontSize=16;exitX=0.5;exitY=0;exitDx=0;exitDy=0;" edge="1" parent="1" source="U86lI-2MnxNxxLe1aYbE-22">
          <mxGeometry width="50" height="50" relative="1" as="geometry">
            <mxPoint x="809.9999999999995" y="194" as="sourcePoint" />
            <mxPoint x="1380" y="-66" as="targetPoint" />
          </mxGeometry>
        </mxCell>
        <mxCell id="U86lI-2MnxNxxLe1aYbE-68" value="" style="endArrow=classic;html=1;rounded=0;fontFamily=Lucida Console;fontSize=16;exitX=0.5;exitY=0;exitDx=0;exitDy=0;entryX=0.5;entryY=1;entryDx=0;entryDy=0;" edge="1" parent="1" source="U86lI-2MnxNxxLe1aYbE-22" target="U86lI-2MnxNxxLe1aYbE-24">
          <mxGeometry width="50" height="50" relative="1" as="geometry">
            <mxPoint x="819.9999999999995" y="204" as="sourcePoint" />
            <mxPoint x="869.9999999999995" y="154" as="targetPoint" />
          </mxGeometry>
        </mxCell>
        <mxCell id="U86lI-2MnxNxxLe1aYbE-69" value="" style="endArrow=classic;html=1;rounded=0;fontFamily=Lucida Console;fontSize=16;entryX=0.5;entryY=1;entryDx=0;entryDy=0;" edge="1" parent="1" target="U86lI-2MnxNxxLe1aYbE-27">
          <mxGeometry width="50" height="50" relative="1" as="geometry">
            <mxPoint x="1640" y="194" as="sourcePoint" />
            <mxPoint x="1714" y="-70" as="targetPoint" />
          </mxGeometry>
        </mxCell>
        <mxCell id="U86lI-2MnxNxxLe1aYbE-70" value="" style="endArrow=classic;html=1;rounded=0;fontFamily=Lucida Console;fontSize=16;exitX=0.5;exitY=0;exitDx=0;exitDy=0;entryX=0.5;entryY=1;entryDx=0;entryDy=0;" edge="1" parent="1" source="U86lI-2MnxNxxLe1aYbE-13" target="U86lI-2MnxNxxLe1aYbE-26">
          <mxGeometry width="50" height="50" relative="1" as="geometry">
            <mxPoint x="1659.9999999999995" y="453.99999999999955" as="sourcePoint" />
            <mxPoint x="1709.9999999999995" y="403.99999999999955" as="targetPoint" />
          </mxGeometry>
        </mxCell>
        <mxCell id="U86lI-2MnxNxxLe1aYbE-71" value="" style="endArrow=classic;html=1;rounded=0;fontFamily=Lucida Console;fontSize=16;exitX=0.5;exitY=0;exitDx=0;exitDy=0;entryX=0.5;entryY=1;entryDx=0;entryDy=0;" edge="1" parent="1" source="U86lI-2MnxNxxLe1aYbE-13" target="U86lI-2MnxNxxLe1aYbE-25">
          <mxGeometry width="50" height="50" relative="1" as="geometry">
            <mxPoint x="1669.9999999999995" y="463.99999999999955" as="sourcePoint" />
            <mxPoint x="1719.9999999999995" y="413.99999999999955" as="targetPoint" />
          </mxGeometry>
        </mxCell>
        <mxCell id="U86lI-2MnxNxxLe1aYbE-72" value="" style="endArrow=classic;html=1;rounded=0;fontFamily=Lucida Console;fontSize=16;exitX=0.5;exitY=0;exitDx=0;exitDy=0;entryX=0.5;entryY=1;entryDx=0;entryDy=0;" edge="1" parent="1" source="U86lI-2MnxNxxLe1aYbE-11" target="U86lI-2MnxNxxLe1aYbE-25">
          <mxGeometry width="50" height="50" relative="1" as="geometry">
            <mxPoint x="1679.9999999999995" y="499.99999999999955" as="sourcePoint" />
            <mxPoint x="1729.9999999999995" y="449.99999999999955" as="targetPoint" />
          </mxGeometry>
        </mxCell>
        <mxCell id="U86lI-2MnxNxxLe1aYbE-73" value="" style="endArrow=classic;html=1;rounded=0;fontFamily=Lucida Console;fontSize=16;exitX=0.5;exitY=0;exitDx=0;exitDy=0;entryX=0.5;entryY=1;entryDx=0;entryDy=0;" edge="1" parent="1" source="U86lI-2MnxNxxLe1aYbE-13" target="U86lI-2MnxNxxLe1aYbE-22">
          <mxGeometry width="50" height="50" relative="1" as="geometry">
            <mxPoint x="1689.9999999999995" y="509.99999999999955" as="sourcePoint" />
            <mxPoint x="1739.9999999999995" y="459.99999999999955" as="targetPoint" />
          </mxGeometry>
        </mxCell>
        <mxCell id="U86lI-2MnxNxxLe1aYbE-74" value="" style="endArrow=classic;html=1;rounded=0;fontFamily=Lucida Console;fontSize=16;exitX=0.5;exitY=0;exitDx=0;exitDy=0;entryX=0.5;entryY=1;entryDx=0;entryDy=0;" edge="1" parent="1" source="U86lI-2MnxNxxLe1aYbE-25" target="U86lI-2MnxNxxLe1aYbE-26">
          <mxGeometry width="50" height="50" relative="1" as="geometry">
            <mxPoint x="1699.9999999999995" y="519.9999999999995" as="sourcePoint" />
            <mxPoint x="1749.9999999999995" y="469.99999999999955" as="targetPoint" />
          </mxGeometry>
        </mxCell>
        <mxCell id="U86lI-2MnxNxxLe1aYbE-75" value="" style="endArrow=classic;html=1;rounded=0;fontFamily=Lucida Console;fontSize=16;exitX=0.5;exitY=0;exitDx=0;exitDy=0;entryX=0.5;entryY=1;entryDx=0;entryDy=0;" edge="1" parent="1" source="U86lI-2MnxNxxLe1aYbE-25" target="U86lI-2MnxNxxLe1aYbE-28">
          <mxGeometry width="50" height="50" relative="1" as="geometry">
            <mxPoint x="1709.9999999999995" y="529.9999999999995" as="sourcePoint" />
            <mxPoint x="1759.9999999999995" y="479.99999999999955" as="targetPoint" />
          </mxGeometry>
        </mxCell>
        <mxCell id="U86lI-2MnxNxxLe1aYbE-76" value="" style="endArrow=classic;html=1;rounded=0;fontFamily=Lucida Console;fontSize=16;exitX=0.5;exitY=0;exitDx=0;exitDy=0;entryX=0.5;entryY=1;entryDx=0;entryDy=0;" edge="1" parent="1" source="U86lI-2MnxNxxLe1aYbE-26" target="U86lI-2MnxNxxLe1aYbE-27">
          <mxGeometry width="50" height="50" relative="1" as="geometry">
            <mxPoint x="1719.9999999999995" y="539.9999999999995" as="sourcePoint" />
            <mxPoint x="1769.9999999999995" y="489.99999999999955" as="targetPoint" />
          </mxGeometry>
        </mxCell>
        <mxCell id="U86lI-2MnxNxxLe1aYbE-77" value="" style="endArrow=classic;html=1;rounded=0;fontFamily=Lucida Console;fontSize=16;exitX=0.5;exitY=0;exitDx=0;exitDy=0;entryX=0.5;entryY=1;entryDx=0;entryDy=0;" edge="1" parent="1" source="U86lI-2MnxNxxLe1aYbE-26" target="U86lI-2MnxNxxLe1aYbE-28">
          <mxGeometry width="50" height="50" relative="1" as="geometry">
            <mxPoint x="1729.9999999999995" y="549.9999999999995" as="sourcePoint" />
            <mxPoint x="1779.9999999999995" y="499.99999999999955" as="targetPoint" />
          </mxGeometry>
        </mxCell>
        <mxCell id="U86lI-2MnxNxxLe1aYbE-78" value="" style="endArrow=classic;html=1;rounded=0;fontFamily=Lucida Console;fontSize=16;exitX=0.5;exitY=0;exitDx=0;exitDy=0;entryX=0.5;entryY=1;entryDx=0;entryDy=0;" edge="1" parent="1" source="U86lI-2MnxNxxLe1aYbE-25" target="U86lI-2MnxNxxLe1aYbE-29">
          <mxGeometry width="50" height="50" relative="1" as="geometry">
            <mxPoint x="1739.9999999999995" y="559.9999999999995" as="sourcePoint" />
            <mxPoint x="1789.9999999999995" y="509.99999999999955" as="targetPoint" />
          </mxGeometry>
        </mxCell>
        <mxCell id="U86lI-2MnxNxxLe1aYbE-79" value="" style="endArrow=classic;html=1;rounded=0;fontFamily=Lucida Console;fontSize=16;exitX=0.5;exitY=0;exitDx=0;exitDy=0;entryX=0.5;entryY=1;entryDx=0;entryDy=0;" edge="1" parent="1" source="U86lI-2MnxNxxLe1aYbE-25" target="U86lI-2MnxNxxLe1aYbE-30">
          <mxGeometry width="50" height="50" relative="1" as="geometry">
            <mxPoint x="1749.9999999999995" y="569.9999999999995" as="sourcePoint" />
            <mxPoint x="1799.9999999999995" y="519.9999999999995" as="targetPoint" />
          </mxGeometry>
        </mxCell>
        <mxCell id="U86lI-2MnxNxxLe1aYbE-80" value="" style="endArrow=classic;html=1;rounded=0;fontFamily=Lucida Console;fontSize=16;exitX=0.5;exitY=0;exitDx=0;exitDy=0;entryX=0.5;entryY=1;entryDx=0;entryDy=0;" edge="1" parent="1" source="U86lI-2MnxNxxLe1aYbE-29" target="U86lI-2MnxNxxLe1aYbE-30">
          <mxGeometry width="50" height="50" relative="1" as="geometry">
            <mxPoint x="1759.9999999999995" y="579.9999999999995" as="sourcePoint" />
            <mxPoint x="1809.9999999999995" y="529.9999999999995" as="targetPoint" />
          </mxGeometry>
        </mxCell>
        <mxCell id="U86lI-2MnxNxxLe1aYbE-81" value="" style="endArrow=classic;html=1;rounded=0;fontFamily=Lucida Console;fontSize=16;exitX=0.5;exitY=0;exitDx=0;exitDy=0;entryX=0.5;entryY=1;entryDx=0;entryDy=0;" edge="1" parent="1" source="U86lI-2MnxNxxLe1aYbE-11" target="U86lI-2MnxNxxLe1aYbE-29">
          <mxGeometry width="50" height="50" relative="1" as="geometry">
            <mxPoint x="2844.9999999999995" y="439.99999999999955" as="sourcePoint" />
            <mxPoint x="2894.9999999999995" y="389.99999999999955" as="targetPoint" />
          </mxGeometry>
        </mxCell>
        <mxCell id="U86lI-2MnxNxxLe1aYbE-82" value="" style="endArrow=classic;html=1;rounded=0;fontFamily=Lucida Console;fontSize=16;exitX=0.5;exitY=0;exitDx=0;exitDy=0;entryX=0.5;entryY=1;entryDx=0;entryDy=0;" edge="1" parent="1" source="U86lI-2MnxNxxLe1aYbE-13" target="U86lI-2MnxNxxLe1aYbE-24">
          <mxGeometry width="50" height="50" relative="1" as="geometry">
            <mxPoint x="1779.9999999999995" y="599.9999999999995" as="sourcePoint" />
            <mxPoint x="1829.9999999999995" y="549.9999999999995" as="targetPoint" />
          </mxGeometry>
        </mxCell>
        <mxCell id="U86lI-2MnxNxxLe1aYbE-83" value="" style="endArrow=classic;html=1;rounded=0;fontFamily=Lucida Console;fontSize=16;exitX=0.5;exitY=0;exitDx=0;exitDy=0;entryX=0.5;entryY=1;entryDx=0;entryDy=0;" edge="1" parent="1" source="U86lI-2MnxNxxLe1aYbE-11" target="U86lI-2MnxNxxLe1aYbE-37">
          <mxGeometry width="50" height="50" relative="1" as="geometry">
            <mxPoint x="2809.9999999999995" y="429.99999999999955" as="sourcePoint" />
            <mxPoint x="2859.9999999999995" y="379.99999999999955" as="targetPoint" />
          </mxGeometry>
        </mxCell>
        <mxCell id="U86lI-2MnxNxxLe1aYbE-84" value="" style="endArrow=classic;html=1;rounded=0;fontFamily=Lucida Console;fontSize=16;exitX=0.5;exitY=0;exitDx=0;exitDy=0;entryX=0.5;entryY=1;entryDx=0;entryDy=0;" edge="1" parent="1" source="U86lI-2MnxNxxLe1aYbE-34" target="U86lI-2MnxNxxLe1aYbE-37">
          <mxGeometry width="50" height="50" relative="1" as="geometry">
            <mxPoint x="2820" y="439.99999999999955" as="sourcePoint" />
            <mxPoint x="2870" y="389.99999999999955" as="targetPoint" />
          </mxGeometry>
        </mxCell>
        <mxCell id="U86lI-2MnxNxxLe1aYbE-85" value="" style="endArrow=classic;html=1;rounded=0;fontFamily=Lucida Console;fontSize=16;exitX=0.5;exitY=0;exitDx=0;exitDy=0;entryX=0.5;entryY=1;entryDx=0;entryDy=0;" edge="1" parent="1" source="U86lI-2MnxNxxLe1aYbE-11" target="U86lI-2MnxNxxLe1aYbE-38">
          <mxGeometry width="50" height="50" relative="1" as="geometry">
            <mxPoint x="2830" y="449.99999999999955" as="sourcePoint" />
            <mxPoint x="2880" y="399.99999999999955" as="targetPoint" />
          </mxGeometry>
        </mxCell>
        <mxCell id="U86lI-2MnxNxxLe1aYbE-86" value="" style="endArrow=classic;html=1;rounded=0;fontFamily=Lucida Console;fontSize=16;exitX=0.5;exitY=0;exitDx=0;exitDy=0;entryX=0.5;entryY=1;entryDx=0;entryDy=0;" edge="1" parent="1" source="U86lI-2MnxNxxLe1aYbE-37" target="U86lI-2MnxNxxLe1aYbE-38">
          <mxGeometry width="50" height="50" relative="1" as="geometry">
            <mxPoint x="2840" y="459.99999999999955" as="sourcePoint" />
            <mxPoint x="2890" y="409.99999999999955" as="targetPoint" />
          </mxGeometry>
        </mxCell>
        <mxCell id="U86lI-2MnxNxxLe1aYbE-87" value="" style="endArrow=classic;html=1;rounded=0;fontFamily=Lucida Console;fontSize=16;exitX=0.5;exitY=0;exitDx=0;exitDy=0;entryX=0.5;entryY=1;entryDx=0;entryDy=0;" edge="1" parent="1" source="U86lI-2MnxNxxLe1aYbE-37" target="U86lI-2MnxNxxLe1aYbE-41">
          <mxGeometry width="50" height="50" relative="1" as="geometry">
            <mxPoint x="2850" y="469.99999999999955" as="sourcePoint" />
            <mxPoint x="2900" y="419.99999999999955" as="targetPoint" />
          </mxGeometry>
        </mxCell>
        <mxCell id="U86lI-2MnxNxxLe1aYbE-88" value="" style="endArrow=classic;html=1;rounded=0;fontFamily=Lucida Console;fontSize=16;exitX=0.5;exitY=0;exitDx=0;exitDy=0;entryX=0.5;entryY=1;entryDx=0;entryDy=0;" edge="1" parent="1" source="U86lI-2MnxNxxLe1aYbE-34" target="U86lI-2MnxNxxLe1aYbE-41">
          <mxGeometry width="50" height="50" relative="1" as="geometry">
            <mxPoint x="2860" y="479.99999999999955" as="sourcePoint" />
            <mxPoint x="2910" y="429.99999999999955" as="targetPoint" />
          </mxGeometry>
        </mxCell>
        <mxCell id="U86lI-2MnxNxxLe1aYbE-89" value="" style="endArrow=classic;html=1;rounded=0;fontFamily=Lucida Console;fontSize=16;exitX=0.5;exitY=0;exitDx=0;exitDy=0;entryX=0.5;entryY=1;entryDx=0;entryDy=0;" edge="1" parent="1" source="U86lI-2MnxNxxLe1aYbE-34" target="U86lI-2MnxNxxLe1aYbE-45">
          <mxGeometry width="50" height="50" relative="1" as="geometry">
            <mxPoint x="2870" y="489.99999999999955" as="sourcePoint" />
            <mxPoint x="2920" y="439.99999999999955" as="targetPoint" />
          </mxGeometry>
        </mxCell>
        <mxCell id="U86lI-2MnxNxxLe1aYbE-90" value="" style="endArrow=classic;html=1;rounded=0;fontFamily=Lucida Console;fontSize=16;exitX=0.5;exitY=0;exitDx=0;exitDy=0;entryX=0.5;entryY=1;entryDx=0;entryDy=0;" edge="1" parent="1" source="U86lI-2MnxNxxLe1aYbE-34" target="U86lI-2MnxNxxLe1aYbE-44">
          <mxGeometry width="50" height="50" relative="1" as="geometry">
            <mxPoint x="3040" y="410" as="sourcePoint" />
            <mxPoint x="2930" y="449.99999999999955" as="targetPoint" />
          </mxGeometry>
        </mxCell>
        <mxCell id="U86lI-2MnxNxxLe1aYbE-91" value="" style="endArrow=classic;html=1;rounded=0;fontFamily=Lucida Console;fontSize=16;exitX=0.5;exitY=0;exitDx=0;exitDy=0;entryX=0.5;entryY=1;entryDx=0;entryDy=0;" edge="1" parent="1" source="U86lI-2MnxNxxLe1aYbE-33" target="U86lI-2MnxNxxLe1aYbE-34">
          <mxGeometry width="50" height="50" relative="1" as="geometry">
            <mxPoint x="2890" y="509.99999999999955" as="sourcePoint" />
            <mxPoint x="2940" y="459.99999999999955" as="targetPoint" />
          </mxGeometry>
        </mxCell>
      </root>
    </mxGraphModel>
  </diagram>
</mxfile>
